<svg xmlns:xlink="http://www.w3.org/1999/xlink" xmlns="http://www.w3.org/2000/svg" viewBox="0 0 106.21 52.2" width="214"  height="105" ><defs><style>.d{fill:#2a2a29;}.e{fill:#dadada;}.f{fill:#1675bb;}.g{fill:#048266;}</style></defs><g id="a"/><g id="b"><g id="c"><path class="e" d="M21.67,12.54c-7.13,0-13.28,3.37-16.17,8.24,3.26-2.76,7.85-4.48,12.94-4.48,9.89,0,17.91,6.48,17.91,14.48,0,2.23-.63,4.35-1.74,6.24,3.08-2.6,4.97-6.12,4.97-10.01,0-8-8.02-14.48-17.91-14.48Z"/><g><path class="e" d="M7.89,18.77c-.08-.11-.17-.22-.25-.33-.33,.35-.64,.7-.93,1.07,.38-.26,.78-.51,1.18-.74Z"/><path class="f" d="M30.92,22.81c-.73,.3-1.49,.57-2.27,.8-8.16,2.43-16.28,.46-20.41-4.4-.91,.52-1.77,1.12-2.56,1.79l-1.27,1.07,.84-1.43c.57-.96,1.26-1.86,2.05-2.68-.59-.91-1.05-1.89-1.37-2.95-1.56-5.24,.82-10.92,5.65-15.01C4.01,4.33-.13,12.27,2.05,19.58c2.63,8.82,13.46,13.38,24.2,10.19,2.76-.82,5.24-2.08,7.36-3.65-.73-1.19-1.64-2.3-2.69-3.31Z"/></g><g><path class="g" d="M19.28,41.95c.29-.3,.44-.74,.44-1.3,0-.64-.15-1.11-.46-1.41-.31-.3-.77-.45-1.38-.45h-1.24v3.63h1.36c.56-.01,.98-.17,1.28-.47Z"/><path class="g" d="M18.62,44.21h-1.98v3.9h1.89c.56,0,.99-.16,1.28-.47,.29-.32,.43-.78,.43-1.4s-.13-1.13-.39-1.48c-.26-.35-.67-.53-1.23-.55Z"/><path class="g" d="M34.79,37.24l-1.27,1.07,.84-1.43c1.13-1.91,1.7-3.96,1.7-6.1,0-1.19-.18-2.34-.53-3.44-2.47,1.88-5.38,3.39-8.64,4.36-11.54,3.44-23.17-1.02-26.91-10.01v30.24H36.89v-16.84c-.61,.76-1.31,1.47-2.1,2.14Zm-23.59,12.11c-.78,.66-1.81,.98-3.1,.98s-2.35-.35-3.25-1.06c-.9-.71-1.34-1.78-1.3-3.23l.02-.06h2.53c0,.84,.17,1.44,.51,1.81,.34,.37,.84,.55,1.5,.55,.56,0,.98-.15,1.25-.46,.28-.31,.42-.71,.42-1.22s-.14-.95-.41-1.26c-.27-.31-.76-.61-1.47-.91-1.37-.48-2.4-1.03-3.1-1.64-.69-.61-1.04-1.47-1.04-2.57s.4-1.99,1.19-2.68c.79-.69,1.8-1.03,3.02-1.03,1.3,0,2.34,.37,3.13,1.1,.79,.74,1.17,1.72,1.15,2.96l-.02,.06h-2.52c0-.69-.15-1.22-.46-1.58-.31-.36-.75-.54-1.33-.54-.5,0-.88,.16-1.16,.49-.28,.33-.41,.74-.41,1.23,0,.45,.16,.83,.47,1.12,.31,.29,.85,.62,1.61,.96,1.29,.43,2.27,.97,2.94,1.63,.66,.66,1,1.54,1,2.65s-.39,2.05-1.17,2.7Zm10.52-.2c-.74,.66-1.81,.99-3.18,.99h-4.48v-13.38h3.83c1.4,0,2.48,.31,3.26,.91,.78,.61,1.17,1.52,1.17,2.73,0,.63-.14,1.19-.43,1.69-.29,.49-.71,.86-1.26,1.1,.75,.15,1.3,.51,1.67,1.08,.36,.56,.55,1.22,.55,1.98,0,1.28-.37,2.25-1.12,2.91Zm11.61-8.24h-2.52c0-.86-.15-1.46-.45-1.8-.3-.34-.81-.51-1.52-.51-.65,0-1.14,.23-1.46,.7-.32,.47-.49,1.19-.49,2.15v3.99c0,.97,.18,1.7,.52,2.16,.35,.47,.88,.7,1.58,.7,.64,0,1.11-.17,1.39-.51,.28-.34,.42-.94,.42-1.81h2.51l.02,.06c.02,1.43-.34,2.51-1.1,3.22-.76,.71-1.84,1.07-3.24,1.07s-2.58-.42-3.43-1.27c-.85-.85-1.27-2.05-1.27-3.62v-3.97c0-1.56,.41-2.76,1.23-3.62,.82-.86,1.92-1.29,3.31-1.29,1.46,0,2.59,.35,3.37,1.07,.78,.71,1.16,1.79,1.14,3.23l-.02,.06Z"/></g><g><path class="d" d="M43.86,41.4c0-.23-.06-.41-.18-.55-.12-.13-.33-.26-.63-.39-.59-.21-1.04-.45-1.34-.71s-.45-.64-.45-1.11,.17-.86,.51-1.16c.34-.3,.78-.45,1.31-.45,.56,0,1.01,.16,1.35,.48,.34,.32,.51,.74,.5,1.28v.02h-1.1c0-.3-.07-.53-.2-.68-.13-.15-.33-.23-.57-.23-.21,0-.38,.07-.5,.21-.12,.14-.18,.32-.18,.53,0,.2,.07,.36,.2,.48,.14,.13,.37,.27,.7,.42,.56,.18,.98,.42,1.27,.7,.29,.28,.43,.66,.43,1.14s-.17,.88-.5,1.17-.78,.42-1.34,.42-1.02-.15-1.41-.46c-.39-.31-.58-.77-.56-1.4v-.02h1.1c0,.36,.07,.62,.22,.78,.15,.16,.36,.24,.65,.24,.24,0,.42-.07,.54-.2,.12-.13,.18-.31,.18-.53Z"/><path class="d" d="M45.5,40.71c0-.65,.15-1.17,.46-1.58s.74-.61,1.3-.61,.99,.2,1.3,.61,.47,.93,.47,1.58v.09c0,.65-.16,1.17-.47,1.58-.31,.4-.74,.61-1.3,.61s-1-.2-1.31-.6-.47-.93-.47-1.58v-.09Zm1.12,.09c0,.4,.05,.72,.15,.95,.1,.24,.27,.35,.51,.35s.39-.12,.49-.35,.15-.55,.15-.95v-.09c0-.39-.05-.71-.15-.95s-.27-.36-.5-.36-.4,.12-.5,.36c-.1,.24-.15,.56-.15,.95v.09Z"/><path class="d" d="M51.22,42.11c.16,0,.28-.06,.36-.18s.12-.29,.12-.51h1.01v.02c.02,.45-.12,.82-.41,1.1-.29,.29-.65,.43-1.09,.43-.56,0-.99-.2-1.29-.61-.3-.4-.45-.93-.45-1.57v-.12c0-.64,.15-1.16,.45-1.56,.3-.41,.73-.61,1.29-.61,.47,0,.84,.15,1.11,.45,.28,.3,.41,.7,.4,1.21v.02h-1.02c0-.24-.04-.43-.12-.58-.08-.15-.2-.22-.37-.22-.23,0-.39,.12-.48,.36-.09,.24-.14,.55-.14,.94v.12c0,.4,.05,.72,.14,.95,.09,.23,.25,.35,.49,.35Z"/><path class="d" d="M54.47,37.56h-1.12v-.85h1.12v.85Zm0,5.34h-1.12v-4.3h1.12v4.3Z"/><path class="d" d="M56.92,42.98c-.57,0-1.01-.2-1.32-.59s-.47-.9-.47-1.51v-.16c0-.65,.15-1.18,.45-1.59,.3-.41,.72-.61,1.27-.61,.51,0,.89,.17,1.16,.52,.27,.35,.4,.82,.4,1.41v.61h-2.17c.02,.32,.09,.57,.22,.76,.13,.19,.32,.28,.58,.28,.22,0,.41-.03,.56-.08,.15-.05,.31-.13,.48-.24l.29,.7c-.15,.14-.36,.26-.62,.35s-.54,.14-.84,.14Zm-.07-3.58c-.19,0-.33,.08-.42,.25-.09,.17-.15,.39-.17,.68h1.06v-.1c0-.26-.04-.47-.11-.61-.07-.15-.19-.22-.36-.22Z"/><path class="d" d="M58.85,40.78c0-.68,.13-1.22,.38-1.63s.61-.62,1.07-.62c.17,0,.33,.04,.47,.12s.26,.2,.37,.35v-2.29h1.12v6.2h-.96l-.08-.48c-.11,.19-.25,.33-.4,.42-.15,.1-.33,.15-.52,.15-.46,0-.81-.19-1.06-.58s-.38-.9-.38-1.54v-.08Zm1.11,.08c0,.39,.05,.69,.14,.92,.1,.22,.25,.33,.47,.33,.12,0,.23-.03,.32-.09s.17-.14,.23-.25v-1.97c-.06-.12-.14-.22-.23-.29s-.2-.1-.32-.1c-.22,0-.37,.13-.47,.38s-.15,.58-.15,.99v.08Z"/><path class="d" d="M65.15,42.9c-.04-.1-.08-.2-.11-.31-.03-.11-.05-.23-.06-.34-.1,.21-.22,.39-.38,.53s-.34,.21-.57,.21c-.39,0-.69-.11-.9-.34-.21-.23-.32-.54-.32-.94s.14-.74,.42-.98c.28-.23,.69-.35,1.24-.35h.49v-.36c0-.21-.04-.38-.12-.49-.08-.12-.2-.17-.35-.17-.14,0-.24,.05-.31,.14-.07,.09-.11,.22-.11,.4h-1.08v-.03c-.02-.37,.12-.69,.41-.95,.29-.26,.68-.39,1.16-.39,.45,0,.82,.13,1.1,.39,.28,.26,.42,.63,.42,1.11v1.76c0,.2,.01,.39,.04,.57,.03,.18,.07,.36,.13,.54h-1.11Zm-.82-.75c.15,0,.28-.05,.4-.14s.2-.2,.24-.33v-.68h-.49c-.19,0-.33,.06-.41,.18-.09,.12-.13,.28-.13,.46,0,.15,.04,.27,.11,.36,.07,.09,.17,.14,.29,.14Z"/><path class="d" d="M66.65,40.78c0-.68,.13-1.22,.38-1.63s.61-.62,1.07-.62c.17,0,.33,.04,.47,.12s.26,.2,.37,.35v-2.29h1.12v6.2h-.96l-.08-.48c-.11,.19-.25,.33-.4,.42-.15,.1-.33,.15-.52,.15-.46,0-.81-.19-1.06-.58s-.38-.9-.38-1.54v-.08Zm1.11,.08c0,.39,.05,.69,.14,.92,.1,.22,.25,.33,.47,.33,.12,0,.23-.03,.32-.09s.17-.14,.23-.25v-1.97c-.06-.12-.14-.22-.23-.29s-.2-.1-.32-.1c-.22,0-.37,.13-.47,.38s-.15,.58-.15,.99v.08Z"/><path class="d" d="M72.45,42.98c-.57,0-1.01-.2-1.32-.59s-.47-.9-.47-1.51v-.16c0-.65,.15-1.18,.45-1.59,.3-.41,.72-.61,1.27-.61,.51,0,.89,.17,1.16,.52,.27,.35,.4,.82,.4,1.41v.61h-2.17c.02,.32,.09,.57,.22,.76,.13,.19,.32,.28,.58,.28,.22,0,.41-.03,.56-.08,.15-.05,.31-.13,.48-.24l.29,.7c-.15,.14-.36,.26-.62,.35s-.54,.14-.84,.14Zm-.07-3.58c-.19,0-.33,.08-.42,.25-.09,.17-.15,.39-.17,.68h1.06v-.1c0-.26-.04-.47-.11-.61-.07-.15-.19-.22-.36-.22Z"/><path class="d" d="M76.4,42.9v-5.78h1.66c.6,0,1.07,.13,1.41,.4,.34,.26,.5,.66,.5,1.18,0,.27-.06,.52-.18,.73-.12,.21-.31,.37-.55,.47,.32,.07,.56,.22,.72,.46,.16,.24,.24,.53,.24,.85,0,.55-.16,.97-.48,1.26-.32,.29-.78,.43-1.38,.43h-1.94Zm1.12-3.34h.59c.24,0,.43-.07,.55-.2,.13-.13,.19-.32,.19-.56,0-.28-.07-.48-.2-.61s-.33-.19-.6-.19h-.54v1.57Zm0,.77v1.69h.82c.24,0,.43-.07,.55-.2,.12-.14,.19-.34,.19-.61s-.06-.49-.17-.64-.29-.23-.53-.24h-.85Z"/><path class="d" d="M82.87,39.57h-.38c-.12-.01-.23,.02-.31,.09-.08,.07-.15,.16-.19,.28v2.96h-1.12v-4.3h1.04l.04,.61c.08-.22,.19-.39,.32-.51s.28-.18,.44-.18c.05,0,.1,0,.14,.01,.04,0,.09,.02,.13,.03l-.12,1Z"/><path class="d" d="M85.54,42.9c-.04-.1-.08-.2-.11-.31-.03-.11-.05-.23-.06-.34-.1,.21-.22,.39-.38,.53s-.34,.21-.57,.21c-.39,0-.69-.11-.9-.34-.21-.23-.32-.54-.32-.94s.14-.74,.42-.98c.28-.23,.69-.35,1.24-.35h.49v-.36c0-.21-.04-.38-.12-.49-.08-.12-.2-.17-.35-.17-.14,0-.24,.05-.31,.14-.07,.09-.11,.22-.11,.4h-1.08v-.03c-.02-.37,.12-.69,.41-.95,.29-.26,.68-.39,1.16-.39,.45,0,.82,.13,1.1,.39,.28,.26,.42,.63,.42,1.11v1.76c0,.2,.01,.39,.04,.57,.03,.18,.07,.36,.13,.54h-1.11Zm-.82-.75c.15,0,.28-.05,.4-.14s.2-.2,.24-.33v-.68h-.49c-.19,0-.33,.06-.41,.18-.09,.12-.13,.28-.13,.46,0,.15,.04,.27,.11,.36,.07,.09,.17,.14,.29,.14Z"/><path class="d" d="M89.11,41.78c0-.13-.05-.24-.15-.33-.1-.09-.29-.2-.57-.33-.44-.16-.77-.35-.99-.55-.22-.2-.33-.47-.33-.79,0-.35,.14-.65,.42-.89,.28-.25,.65-.37,1.11-.37s.87,.13,1.15,.38c.29,.26,.42,.58,.41,.97v.02h-1.09c0-.18-.04-.33-.12-.44-.08-.11-.2-.17-.36-.17-.13,0-.24,.04-.33,.13s-.13,.19-.13,.31,.04,.23,.13,.31,.28,.19,.57,.32c.45,.16,.79,.34,1.01,.55,.22,.21,.33,.48,.33,.82,0,.37-.15,.66-.44,.9-.29,.23-.68,.35-1.16,.35s-.9-.14-1.19-.43c-.29-.29-.43-.61-.42-.97v-.02h1.03c0,.23,.06,.4,.17,.5,.11,.1,.25,.15,.44,.15,.16,0,.28-.04,.36-.12,.08-.08,.13-.18,.13-.32Z"/><path class="d" d="M91.94,37.56h-1.12v-.85h1.12v.85Zm0,5.34h-1.12v-4.3h1.12v4.3Z"/><path class="d" d="M93.92,42.9h-1.12v-6.2h1.12v6.2Z"/><path class="d" d="M96.37,42.98c-.57,0-1.01-.2-1.32-.59s-.47-.9-.47-1.51v-.16c0-.65,.15-1.18,.45-1.59,.3-.41,.72-.61,1.27-.61,.51,0,.89,.17,1.16,.52,.27,.35,.4,.82,.4,1.41v.61h-2.17c.02,.32,.09,.57,.22,.76,.13,.19,.32,.28,.58,.28,.22,0,.41-.03,.56-.08,.15-.05,.31-.13,.48-.24l.29,.7c-.15,.14-.36,.26-.62,.35s-.54,.14-.84,.14Zm-.07-3.58c-.19,0-.33,.08-.42,.25-.09,.17-.15,.39-.17,.68h1.06v-.1c0-.26-.04-.47-.11-.61-.07-.15-.19-.22-.36-.22Z"/><path class="d" d="M99.62,37.56h-1.12v-.85h1.12v.85Zm0,5.34h-1.12v-4.3h1.12v4.3Z"/><path class="d" d="M102.42,39.57h-.38c-.12-.01-.23,.02-.31,.09-.08,.07-.15,.16-.19,.28v2.96h-1.12v-4.3h1.04l.04,.61c.08-.22,.19-.39,.32-.51s.28-.18,.44-.18c.05,0,.1,0,.14,.01,.04,0,.09,.02,.13,.03l-.12,1Z"/><path class="d" d="M105.1,42.9c-.04-.1-.08-.2-.11-.31-.03-.11-.05-.23-.06-.34-.1,.21-.22,.39-.38,.53s-.34,.21-.57,.21c-.39,0-.69-.11-.9-.34-.21-.23-.32-.54-.32-.94s.14-.74,.42-.98c.28-.23,.69-.35,1.24-.35h.49v-.36c0-.21-.04-.38-.12-.49-.08-.12-.2-.17-.35-.17-.14,0-.24,.05-.31,.14-.07,.09-.11,.22-.11,.4h-1.08v-.03c-.02-.37,.12-.69,.41-.95,.29-.26,.68-.39,1.16-.39,.45,0,.82,.13,1.1,.39,.28,.26,.42,.63,.42,1.11v1.76c0,.2,.01,.39,.04,.57,.03,.18,.07,.36,.13,.54h-1.11Zm-.82-.75c.15,0,.28-.05,.4-.14s.2-.2,.24-.33v-.68h-.49c-.19,0-.33,.06-.41,.18-.09,.12-.13,.28-.13,.46,0,.15,.04,.27,.11,.36,.07,.09,.17,.14,.29,.14Z"/><path class="d" d="M41.09,48.23c0-.68,.13-1.22,.38-1.63s.61-.62,1.07-.62c.17,0,.33,.04,.47,.12s.26,.2,.37,.35v-2.29h1.12v6.2h-.96l-.08-.48c-.11,.19-.25,.33-.4,.42-.15,.1-.33,.15-.52,.15-.46,0-.81-.19-1.06-.58s-.38-.9-.38-1.54v-.08Zm1.11,.08c0,.39,.05,.69,.14,.92,.1,.22,.25,.33,.47,.33,.12,0,.23-.03,.32-.09s.17-.14,.23-.25v-1.97c-.06-.12-.14-.22-.23-.29s-.2-.1-.32-.1c-.22,0-.37,.13-.47,.38s-.15,.58-.15,.99v.08Z"/><path class="d" d="M46.89,50.44c-.57,0-1.01-.2-1.32-.59s-.47-.9-.47-1.51v-.16c0-.65,.15-1.18,.45-1.59,.3-.41,.72-.61,1.27-.61,.51,0,.89,.17,1.16,.52,.27,.35,.4,.82,.4,1.41v.61h-2.17c.02,.32,.09,.57,.22,.76,.13,.19,.32,.28,.58,.28,.22,0,.41-.03,.56-.08,.15-.05,.31-.13,.48-.24l.29,.7c-.15,.14-.36,.26-.62,.35s-.54,.14-.84,.14Zm-.07-3.58c-.19,0-.33,.08-.42,.25-.09,.17-.15,.39-.17,.68h1.06v-.1c0-.26-.04-.47-.11-.61-.07-.15-.19-.22-.36-.22Z"/><path class="d" d="M54.63,48.56v.02c.02,.62-.14,1.08-.47,1.39s-.79,.46-1.4,.46-1.12-.18-1.48-.55c-.37-.37-.55-.89-.55-1.56v-1.72c0-.67,.18-1.19,.53-1.57,.35-.37,.83-.56,1.43-.56,.63,0,1.12,.15,1.46,.46,.34,.31,.5,.77,.49,1.39v.02h-1.1c0-.37-.07-.63-.2-.78-.13-.15-.35-.22-.66-.22-.28,0-.49,.1-.63,.3-.14,.2-.21,.51-.21,.93v1.72c0,.42,.08,.73,.23,.94,.15,.2,.38,.3,.68,.3,.28,0,.48-.07,.6-.22,.12-.15,.18-.41,.18-.78h1.08Z"/><path class="d" d="M55.13,48.17c0-.65,.15-1.17,.46-1.58s.74-.61,1.3-.61,.99,.2,1.3,.61,.47,.93,.47,1.58v.09c0,.65-.16,1.17-.47,1.58-.31,.4-.74,.61-1.3,.61s-1-.2-1.31-.6-.47-.93-.47-1.58v-.09Zm1.12,.09c0,.4,.05,.72,.15,.95,.1,.24,.27,.35,.51,.35s.39-.12,.49-.35,.15-.55,.15-.95v-.09c0-.39-.05-.71-.15-.95s-.27-.36-.5-.36-.4,.12-.5,.36c-.1,.24-.15,.56-.15,.95v.09Z"/><path class="d" d="M60.32,46.06l.04,.55c.12-.2,.26-.36,.44-.47s.38-.16,.61-.16,.42,.06,.58,.18c.16,.12,.29,.3,.38,.54,.11-.22,.26-.4,.44-.53,.18-.13,.39-.19,.63-.19,.36,0,.64,.15,.85,.45,.21,.3,.31,.76,.31,1.39v2.54h-1.12v-2.54c0-.36-.04-.61-.12-.75-.08-.14-.19-.21-.35-.21-.12,0-.22,.03-.31,.1-.09,.07-.16,.16-.22,.28,0,.07,0,.12,0,.17s0,.1,0,.14v2.8h-1.12v-2.54c0-.36-.04-.61-.12-.75-.08-.14-.2-.21-.36-.21-.11,0-.21,.03-.29,.08-.09,.05-.16,.13-.22,.23v3.19h-1.12v-4.3h1.04Z"/><path class="d" d="M68.76,48.32c0,.64-.13,1.16-.38,1.54s-.61,.58-1.06,.58c-.18,0-.34-.04-.48-.11-.14-.07-.26-.18-.37-.32v2h-1.12v-5.95h1.02l.05,.44c.11-.17,.23-.3,.38-.39,.15-.09,.32-.13,.51-.13,.46,0,.82,.21,1.07,.62s.38,.96,.38,1.63v.08Zm-1.12-.08c0-.41-.05-.74-.15-.99s-.26-.38-.47-.38c-.13,0-.24,.03-.33,.1-.09,.07-.17,.16-.22,.27v2.03c.06,.1,.13,.18,.22,.23,.09,.05,.2,.08,.33,.08,.22,0,.37-.11,.47-.33,.1-.22,.15-.53,.15-.92v-.08Z"/><path class="d" d="M71.59,49.75c-.11,.22-.26,.39-.43,.51s-.37,.18-.59,.18c-.39,0-.69-.15-.91-.46s-.33-.79-.33-1.44v-2.48h1.12v2.49c0,.38,.04,.65,.11,.8s.19,.22,.36,.22c.13,0,.24-.02,.34-.07,.1-.05,.18-.12,.25-.22v-3.21h1.12v4.3h-.92l-.12-.61Z"/><path class="d" d="M74.67,44.99v1.07h.58v.8h-.58v2.19c0,.18,.03,.31,.08,.39,.05,.08,.13,.12,.22,.12,.05,0,.1,0,.13,0s.08-.02,.13-.03l.09,.83c-.11,.04-.21,.06-.3,.08-.1,.02-.21,.03-.33,.03-.37,0-.65-.11-.84-.33-.19-.22-.29-.57-.29-1.05v-2.2h-.52v-.8h.52v-1.07h1.12Z"/><path class="d" d="M78.03,50.36c-.04-.1-.08-.2-.11-.31-.03-.11-.05-.23-.06-.34-.1,.21-.22,.39-.38,.53s-.34,.21-.57,.21c-.39,0-.69-.11-.9-.34-.21-.23-.32-.54-.32-.94s.14-.74,.42-.98c.28-.23,.69-.35,1.24-.35h.49v-.36c0-.21-.04-.38-.12-.49-.08-.12-.2-.17-.35-.17-.14,0-.24,.05-.31,.14-.07,.09-.11,.22-.11,.4h-1.08v-.03c-.02-.37,.12-.69,.41-.95,.29-.26,.68-.39,1.16-.39,.45,0,.82,.13,1.1,.39,.28,.26,.42,.63,.42,1.11v1.76c0,.2,.01,.39,.04,.57,.03,.18,.07,.36,.13,.54h-1.11Zm-.82-.75c.15,0,.28-.05,.4-.14s.2-.2,.24-.33v-.68h-.49c-.19,0-.33,.06-.41,.18-.09,.12-.13,.28-.13,.46,0,.15,.04,.27,.11,.36,.07,.09,.17,.14,.29,.14Z"/><path class="d" d="M81.27,49.57c.16,0,.28-.06,.36-.18s.12-.29,.12-.51h1.01v.02c.02,.45-.12,.82-.41,1.1-.29,.29-.65,.43-1.09,.43-.56,0-.99-.2-1.29-.61-.3-.4-.45-.93-.45-1.57v-.12c0-.64,.15-1.16,.45-1.56,.3-.41,.73-.61,1.29-.61,.47,0,.84,.15,1.11,.45,.28,.3,.41,.7,.4,1.21v.02h-1.02c0-.24-.04-.43-.12-.58-.08-.15-.2-.22-.37-.22-.23,0-.39,.12-.48,.36-.09,.24-.14,.55-.14,.94v.12c0,.4,.05,.72,.14,.95,.09,.23,.25,.35,.49,.35Zm.42,.77l-.04,.23c.14,.03,.26,.09,.35,.2,.1,.11,.14,.27,.14,.48,0,.29-.11,.51-.32,.68-.21,.17-.52,.25-.91,.25l-.02-.63c.1,0,.17-.03,.23-.08,.05-.06,.08-.14,.08-.26s-.03-.19-.1-.24c-.07-.04-.19-.07-.35-.09l.11-.56h.84Z"/><path class="d" d="M85.49,50.36c-.04-.1-.08-.2-.11-.31-.03-.11-.05-.23-.06-.34-.1,.21-.22,.39-.38,.53s-.34,.21-.57,.21c-.39,0-.69-.11-.9-.34-.21-.23-.32-.54-.32-.94s.14-.74,.42-.98c.28-.23,.69-.35,1.24-.35h.49v-.36c0-.21-.04-.38-.12-.49-.08-.12-.2-.17-.35-.17-.14,0-.24,.05-.31,.14-.07,.09-.11,.22-.11,.4h-1.08v-.03c-.02-.37,.12-.69,.41-.95,.29-.26,.68-.39,1.16-.39,.45,0,.82,.13,1.1,.39,.28,.26,.42,.63,.42,1.11v1.76c0,.2,.01,.39,.04,.57,.03,.18,.07,.36,.13,.54h-1.11Zm.69-6.08c0,.25-.07,.46-.21,.64s-.31,.26-.52,.26c-.16,0-.35-.06-.55-.18-.21-.12-.37-.18-.48-.18-.08,0-.14,.04-.19,.13-.05,.09-.08,.19-.08,.32l-.59-.17c0-.24,.07-.46,.21-.64,.14-.18,.31-.27,.52-.27,.12,0,.3,.06,.52,.18,.22,.12,.4,.18,.51,.18,.07,0,.14-.04,.19-.13s.08-.19,.08-.32l.58,.18Zm-1.51,5.33c.15,0,.28-.05,.4-.14s.2-.2,.24-.33v-.68h-.49c-.19,0-.33,.06-.41,.18-.09,.12-.13,.28-.13,.46,0,.15,.04,.27,.11,.36,.07,.09,.17,.14,.29,.14Z"/><path class="d" d="M87.01,48.17c0-.65,.15-1.17,.46-1.58s.74-.61,1.3-.61,.99,.2,1.3,.61,.47,.93,.47,1.58v.09c0,.65-.16,1.17-.47,1.58-.31,.4-.74,.61-1.3,.61s-1-.2-1.31-.6-.47-.93-.47-1.58v-.09Zm1.12,.09c0,.4,.05,.72,.15,.95,.1,.24,.27,.35,.51,.35s.39-.12,.49-.35,.15-.55,.15-.95v-.09c0-.39-.05-.71-.15-.95s-.27-.36-.5-.36-.4,.12-.5,.36c-.1,.24-.15,.56-.15,.95v.09Z"/></g></g></g></svg>