<svg xmlns="http://www.w3.org/2000/svg" xmlns:xlink="http://www.w3.org/1999/xlink" viewBox="0 0 144.2 54.33" width="214"  height="80" ><defs><style>.h{fill:#fff;stroke:#fff;stroke-width:.25px;}.i{fill:url(#f);}.j{fill:url(#g);}.k{fill:url(#d);}.l{fill:url(#e);}.m{fill:#00b6be;}.n{fill:#231f20;}</style><linearGradient id="d" x1="13.67" y1="1.51" x2="13.67" y2="34.9" gradientTransform="matrix(1, 0, 0, 1, 0, 0)" gradientUnits="userSpaceOnUse"><stop offset="0" stop-color="#a6ce39"/><stop offset=".44" stop-color="#007236"/><stop offset="1" stop-color="#00b6be"/></linearGradient><linearGradient id="e" x1="14.84" y1="1.51" x2="14.84" y2="34.9" xlink:href="#d"/><linearGradient id="f" x1="9" y1="1.51" x2="9" y2="34.9" xlink:href="#d"/><linearGradient id="g" x1="14.16" y1="1.51" x2="14.16" y2="34.9" gradientTransform="matrix(1, 0, 0, 1, 0, 0)" gradientUnits="userSpaceOnUse"><stop offset="0" stop-color="#a6ce39"/><stop offset=".23" stop-color="#007236"/><stop offset="1" stop-color="#00b6be"/></linearGradient></defs><g id="a"/><g id="b"><g id="c"><g><g><path class="n" d="M34.44,36.21V.18h25.79V6.69h-19.03v9.79h18v6.26h-18v13.46h-6.77Z"/><path class="n" d="M65.46,36.21l.12-36.21h6.72l-.12,36.21h-6.72Z"/><path class="n" d="M93.34,23.62h-8.34v12.59h-6.77V.1c5.64,0,9.46-.05,15.11-.05,17.54,0,17.59,23.57,0,23.57Zm-8.34-6.21h8.34c8.67,0,8.62-10.9,0-10.9h-8.34v10.9Z"/><path class="n" d="M126.46,23.62h-8.34v12.59h-6.77V.1c5.64,0,9.46-.05,15.11-.05,17.54,0,17.59,23.57,0,23.57Zm-8.34-6.21h8.34c8.67,0,8.62-10.9,0-10.9h-8.34v10.9Z"/></g><g><path class="k" d="M14,36.18v-5.75c-.23,0-.45,0-.67-.02v5.76c.22,0,.44,.01,.67,.02Z"/><path class="l" d="M15.17,30.4c-.21,.02-.43,.02-.65,.03v5.75c.22,0,.44,0,.65-.02v-5.76Z"/><g><path class="i" d="M12.81,30.36c-4.5-.46-6.73-3.19-6.78-8.14h7.1v-5.7H5.99v-2.55h12v-5.7H0v14.03H0c.1,8.49,5.33,13.3,12.8,13.83v-5.77Z"/><path class="j" d="M0,.21V5.87H22.23v15.91c0,4.43-2.13,7.97-6.65,8.59v5.76c8.01-.63,12.72-6.48,12.72-14.35V.21H0Z"/></g></g><g><rect class="m" x="121.6" y="30.8" width="18.03" height="5.41"/><g><path class="h" d="M124.26,33.62c0,.44-.27,.88-.87,.88h-.58v-1.72h.57c.58,0,.86,.42,.87,.84Zm-1.32-.71v1.47h.45c.51,0,.74-.39,.73-.76,0-.36-.24-.71-.74-.71h-.45Z"/><path class="h" d="M124.81,33.58h1v.12h-1v.68h1.08v.12h-1.21v-1.72h1.18v.12h-1.05v.67Z"/><path class="h" d="M127.46,33.11c-.12-.2-.33-.23-.52-.23-.2,0-.52,.07-.52,.35,0,.22,.23,.27,.52,.32,.33,.06,.67,.12,.67,.49,0,.39-.39,.48-.68,.48-.27,0-.57-.11-.7-.37l.12-.06c.1,.21,.37,.31,.58,.31,.21,0,.54-.06,.54-.37,0-.26-.28-.31-.56-.37-.31-.06-.63-.13-.63-.44,0-.36,.37-.48,.65-.48,.24,0,.46,.04,.63,.29l-.11,.07Z"/><path class="h" d="M129.45,33.61c0,.44-.27,.88-.86,.88-.2,0-.39,0-.58,0v-1.72c.19,0,.38,0,.57,0,.58,0,.86,.42,.87,.84Zm-1.32-.71v1.47h.45c.51,0,.74-.39,.74-.76,0-.36-.25-.72-.74-.71h-.45Z"/><path class="h" d="M130,33.56h1v.12h-1v.68h1.08v.13h-1.21v-1.72h1.18v.12h-1.05v.67Z"/><path class="h" d="M132.14,34.37h.29v-1.49h-.29v-.12h.42v1.61h.29v.12h-.71v-.12Z"/><path class="h" d="M134.42,33.55c-.14,.2-.34,.24-.55,.24-.32,0-.67-.15-.67-.53s.35-.53,.67-.53c.32,0,.67,.15,.68,.53v.75c0,.33-.32,.48-.65,.48-.34,0-.63-.14-.65-.43h.13c.01,.21,.24,.32,.52,.31,.26,0,.53-.12,.53-.36v-.47Zm-1.09-.29c0,.3,.29,.41,.54,.41,.24,0,.54-.12,.54-.41,0-.31-.3-.41-.54-.41-.25,0-.54,.09-.54,.41Z"/><path class="h" d="M134.95,34.02c0-.24,.19-.39,.38-.44-.2-.06-.36-.18-.36-.4,0-.36,.38-.47,.68-.47,.29,0,.68,.1,.68,.47,0,.22-.17,.34-.37,.4,.2,.04,.4,.2,.4,.43,0,.37-.39,.49-.7,.49-.32,0-.71-.12-.71-.49Zm.13,0c0,.29,.37,.36,.58,.36s.57-.08,.57-.37c0-.29-.38-.38-.57-.38s-.57,.09-.57,.38Zm.03-.83c0,.26,.34,.34,.55,.34s.55-.07,.54-.34c0-.28-.34-.36-.55-.36-.21,0-.55,.08-.54,.36Z"/><path class="h" d="M137.83,32.87h-1.11v-.12h1.25l.02,.11-.93,1.62h-.15l.92-1.6Z"/></g></g><path class="n" d="M144.2,2.32c0,1.23-.97,2.2-2.23,2.2s-2.24-.97-2.24-2.2,.99-2.17,2.24-2.17,2.23,.97,2.23,2.17Zm-3.91,0c0,.97,.72,1.74,1.7,1.74s1.66-.77,1.66-1.72-.7-1.75-1.67-1.75-1.68,.78-1.68,1.74Zm1.34,1.14h-.5V1.29c.2-.04,.48-.07,.84-.07,.41,0,.6,.07,.75,.16,.12,.09,.21,.26,.21,.48,0,.24-.18,.42-.45,.5v.03c.21,.08,.33,.24,.4,.53,.07,.33,.11,.46,.16,.54h-.54c-.07-.08-.11-.28-.17-.53-.04-.24-.17-.34-.45-.34h-.24v.87Zm.01-1.23h.24c.28,0,.5-.09,.5-.32,0-.2-.15-.33-.46-.33-.13,0-.23,.01-.28,.03v.62Z"/><g><path class="n" d="M.03,46.78v-5.6H4.06v1.02H1.09v1.53H3.9v.98H1.09v2.07H.03Z"/><path class="n" d="M9.75,45.73h-2.93l-.48,1.06h-1.15l2.52-5.61h1.15l2.52,5.61h-1.15l-.47-1.06Zm-1.47-3.37l-1.04,2.39h2.08l-1.04-2.39Z"/><path class="n" d="M17.44,46.08c-.58,.57-1.32,.83-2.13,.83-2.08,0-2.96-1.43-2.97-2.89,0-1.47,.95-2.96,2.97-2.96,.76,0,1.48,.29,2.06,.86l-.7,.68c-.37-.36-.87-.53-1.35-.53-1.35,0-1.94,1.01-1.93,1.95,0,.93,.54,1.9,1.93,1.9,.49,0,1.04-.2,1.41-.57l.72,.73Z"/><path class="n" d="M23.86,41.18v3.21c0,1.66-1.02,2.51-2.43,2.51s-2.49-.82-2.49-2.51v-3.21h1.05v3.21c0,1.01,.58,1.54,1.45,1.54s1.37-.58,1.37-1.54v-3.21h1.05Z"/><path class="n" d="M26.93,41.18v4.63h2.88v.98h-3.94v-5.61h1.06Z"/><path class="n" d="M36.47,43.93c.02,1.42-.84,2.85-2.8,2.85h-2.2v-5.61h2.2c1.92,0,2.78,1.37,2.8,2.76Zm-3.96,1.83h1.15c1.27,0,1.78-.93,1.75-1.84-.02-.87-.54-1.75-1.75-1.75h-1.15v3.59Z"/><path class="n" d="M42.13,45.73h-2.93l-.48,1.06h-1.15l2.52-5.61h1.15l2.52,5.61h-1.15l-.47-1.06Zm-1.47-3.37l-1.04,2.39h2.08l-1.04-2.39Z"/><path class="n" d="M50.32,43.93c.02,1.42-.84,2.85-2.8,2.85h-2.2v-5.61h2.2c1.92,0,2.78,1.37,2.8,2.76Zm-3.96,1.83h1.15c1.27,0,1.78-.93,1.75-1.84-.02-.87-.54-1.75-1.75-1.75h-1.15v3.59Z"/><path class="n" d="M56.18,46.78h-4.2v-5.61h4.2v1.03h-3.15v1.29h3.04v.99h-3.04v1.27h3.15v1.04Z"/><path class="n" d="M65.51,43.93c.02,1.42-.84,2.85-2.8,2.85h-2.2v-5.61h2.2c1.92,0,2.78,1.37,2.8,2.76Zm-3.96,1.83h1.15c1.27,0,1.78-.93,1.75-1.84-.02-.87-.54-1.75-1.75-1.75h-1.15v3.59Z"/><path class="n" d="M71.37,46.78h-4.2v-5.61h4.2v1.03h-3.15v1.29h3.04v.99h-3.04v1.27h3.15v1.04Z"/><path class="n" d="M75.77,46.78v-5.61h1.05v5.61h-1.05Z"/><path class="n" d="M82.48,41.17h1.06v5.62h-.66l-2.95-3.78v3.78h-1.06v-5.61h.86l2.75,3.48v-3.48Z"/><path class="n" d="M85.49,46.78v-5.6h4.03v1.02h-2.97v1.53h2.81v.98h-2.81v2.07h-1.06Z"/><path class="n" d="M96.9,44.01c-.02,1.45-.91,2.9-2.88,2.9s-2.88-1.42-2.88-2.89,.95-2.96,2.88-2.96,2.89,1.48,2.88,2.95Zm-4.72,.02c.02,.92,.52,1.91,1.84,1.91s1.82-.99,1.83-1.91c.02-.95-.51-2-1.83-2s-1.87,1.06-1.84,2.01Z"/><path class="n" d="M103.64,46.78h-1.26l-1.63-1.88h-1.02v1.88h-1.06v-5.62c.89,0,1.78,0,2.67,0,1.32,0,2.02,.89,2.02,1.86,0,.77-.35,1.55-1.42,1.76l1.7,1.91v.07Zm-3.91-4.62v1.79h1.61c.67,0,.96-.45,.96-.9s-.3-.9-.96-.9h-1.61Z"/><path class="n" d="M109.94,42.72l-1.83,2.44h-.21l-1.79-2.44v4.08h-1.06v-5.61h1.22l1.75,2.41,1.75-2.41h1.21v5.61h-1.06v-4.07Z"/><path class="n" d="M116.95,45.73h-2.93l-.48,1.06h-1.15l2.52-5.61h1.15l2.52,5.61h-1.15l-.47-1.06Zm-.42-.99l-1.04-2.39-1.04,2.39h2.08Zm.26-5.28h-1.15l-.59,1.09v.05h.86l.88-1.1v-.04Z"/><path class="n" d="M120.57,42.14h-1.78v-.96h4.61v.96h-1.78v4.65h-1.06v-4.65Z"/><path class="n" d="M125.03,46.78v-5.61h1.05v5.61h-1.05Z"/><path class="n" d="M132.99,46.08c-.58,.57-1.32,.83-2.13,.83-2.08,0-2.96-1.43-2.97-2.89,0-1.47,.95-2.96,2.97-2.96,.76,0,1.48,.29,2.06,.86l-.7,.68c-.37-.36-.87-.53-1.35-.53-1.35,0-1.94,1.01-1.93,1.95,0,.93,.54,1.9,1.93,1.9,.49,0,1.04-.2,1.41-.57l.72,.73Z"/><path class="n" d="M138.3,45.73h-2.93l-.48,1.06h-1.15l2.52-5.61h1.15l2.52,5.61h-1.15l-.47-1.06Zm-1.47-3.37l-1.04,2.39h2.08l-1.04-2.39Z"/><path class="n" d="M4.2,51.74c.03,1.25-.77,2.51-2.49,2.51H.05v-4.9H1.71c1.66,0,2.46,1.19,2.49,2.4Zm-3.77-2.04v4.18H1.71c1.46,0,2.13-1.09,2.11-2.14-.02-1.02-.69-2.04-2.11-2.04H.43Z"/><path class="n" d="M7.72,51.61h2.87v.34h-2.87v1.93h3.1v.36h-3.47v-4.9h3.38v.36h-3.01v1.9Z"/><path class="n" d="M18.55,52.56v1.69h-.38v-4.9h2.15c2.13,0,2.13,3.21,0,3.21h-1.77Zm0-2.86v2.51h1.77c1.63,0,1.63-2.51,0-2.51h-1.77Z"/><path class="n" d="M28.96,54.25h-.5l-1.7-1.86h-1.34v1.86h-.38v-4.9h2.16c1.06,0,1.6,.76,1.61,1.53,0,.8-.52,1.5-1.59,1.5l1.73,1.88Zm-3.53-2.21h1.74c.85,0,1.23-.48,1.24-1.17,0-.57-.39-1.17-1.2-1.17h-1.78v2.34Z"/><path class="n" d="M32.26,51.61h2.87v.34h-2.87v1.93h3.1v.36h-3.47v-4.9h3.38v.36h-3.01v1.9Z"/><path class="n" d="M41.82,50.29c-.36-.57-.93-.66-1.48-.67-.57,0-1.49,.21-1.49,1,0,.62,.67,.77,1.5,.92,.95,.18,1.93,.35,1.93,1.41,0,1.11-1.12,1.37-1.94,1.37-.76,0-1.63-.32-2.01-1.06l.34-.17c.3,.6,1.07,.89,1.67,.89s1.56-.17,1.56-1.04c0-.73-.81-.9-1.61-1.05-.9-.17-1.81-.36-1.81-1.26-.02-1.04,1.06-1.36,1.86-1.36,.7,0,1.31,.11,1.79,.83l-.31,.18Z"/><path class="n" d="M45.37,54.25v-4.9h.37v4.9h-.37Z"/><path class="n" d="M53.24,51.74c.03,1.25-.77,2.51-2.49,2.51h-1.66v-4.9h1.66c1.66,0,2.46,1.19,2.49,2.4Zm-3.77-2.04v4.18h1.28c1.46,0,2.13-1.09,2.11-2.14-.02-1.02-.69-2.04-2.11-2.04h-1.28Z"/><path class="n" d="M56.76,51.61h2.87v.34h-2.87v1.93h3.1v.36h-3.47v-4.9h3.38v.36h-3.01v1.9Z"/><path class="n" d="M63.3,49.35l3.3,4.05v-4.05h.37v4.9h-.15l-3.31-4.05v4.05h-.38v-4.9h.16Z"/><path class="n" d="M71.75,49.69h-1.77v-.34h3.92v.34h-1.77v4.56h-.38v-4.56Z"/><path class="n" d="M77.29,51.61h2.87v.34h-2.87v1.93h3.1v.36h-3.47v-4.9h3.38v.36h-3.01v1.9Z"/><path class="n" d="M88.12,52.56v1.69h-.38v-4.9h2.15c2.13,0,2.13,3.21,0,3.21h-1.77Zm0-2.86v2.51h1.77c1.63,0,1.63-2.51,0-2.51h-1.77Z"/><path class="n" d="M98.53,54.25h-.5l-1.7-1.86h-1.34v1.86h-.38v-4.9h2.16c1.06,0,1.6,.76,1.61,1.53,0,.8-.52,1.5-1.59,1.5l1.73,1.88Zm-3.53-2.21h1.74c.85,0,1.23-.48,1.24-1.17,0-.57-.38-1.17-1.2-1.17h-1.78v2.34Z"/><path class="n" d="M105.36,49.35v3.05c0,2.56-3.75,2.57-3.75,0v-3.05h.37v3.05c0,2.11,3.01,2.1,3.01,0v-3.05h.37Z"/><path class="n" d="M112.8,51.74c.03,1.25-.77,2.51-2.49,2.51h-1.66v-4.9h1.66c1.66,0,2.46,1.19,2.49,2.4Zm-3.77-2.04v4.18h1.28c1.46,0,2.13-1.09,2.11-2.14-.02-1.02-.69-2.04-2.11-2.04h-1.28Z"/><path class="n" d="M116.32,51.61h2.87v.34h-2.87v1.93h3.1v.36h-3.47v-4.9h3.38v.36h-3.01v1.9Z"/><path class="n" d="M122.86,49.35l3.3,4.05v-4.05h.37v4.9h-.15l-3.31-4.05v4.05h-.38v-4.9h.16Z"/><path class="n" d="M131.32,49.69h-1.77v-.34h3.92v.34h-1.77v4.56h-.38v-4.56Z"/><path class="n" d="M136.85,51.61h2.87v.34h-2.87v1.93h3.1v.36h-3.47v-4.9h3.38v.36h-3.01v1.9Z"/></g></g></g></g></svg>