<svg xmlns="http://www.w3.org/2000/svg" xmlns:xlink="http://www.w3.org/1999/xlink" style="isolation:isolate" viewBox="0 0 930.1 214.3" width="930.1" height="214.3"><defs><clipPath id="_clipPath_4U85q6i7dpPIz8NbQfrd9hUvKV19fnQH"><rect width="930.1" height="214.3"/></clipPath></defs><g clip-path="url(#_clipPath_4U85q6i7dpPIz8NbQfrd9hUvKV19fnQH)"><path d=" M 911.575 32.486 L 914.433 32.486 C 916.631 32.486 917.597 31.871 917.597 29.145 L 917.597 28.353 C 917.597 25.629 916.631 25.583 914.433 25.453 L 911.575 25.453 L 911.575 32.486 Z  M 916.982 34.685 L 920.852 41.367 L 917.421 41.367 L 913.862 35.256 L 911.575 35.256 L 911.575 41.367 L 908.674 41.367 L 908.674 22.595 L 914.433 22.595 C 917.906 22.595 920.676 23.694 920.676 28.353 L 920.676 29.145 C 920.676 32.31 919.71 34.157 916.982 34.685 Z  M 914.081 45.455 C 922.171 45.455 926.742 39.563 926.742 32.223 C 926.742 24.836 922.171 18.945 914.081 18.945 C 906.035 18.945 901.507 24.793 901.507 32.223 C 901.507 39.608 906.035 45.455 914.081 45.455 Z  M 930.084 32.266 C 930.084 41.103 924.369 48.532 914.081 48.532 C 903.883 48.532 898.121 41.103 898.121 32.266 C 898.121 23.386 903.883 16 914.081 16 C 924.369 16 930.084 23.386 930.084 32.266 Z " fill="rgb(32,29,67)"/><path d=" M 75.646 99.064 L 288.797 0 L 75.646 50.896 L 75.646 99.064 Z " fill="rgb(104,201,140)"/><path d=" M 75.646 193.852 L 161.173 134.807 L 129.053 124.379 L 75.646 193.852 Z " fill="rgb(32,29,67)"/><path d=" M 288.797 0 L 129.098 124.379 L 223.608 155.064 C 225.348 155.628 227.204 154.604 227.65 152.829 L 288.797 0 Z " fill="rgb(104,201,140)"/><path d=" M 223.608 155.064 C 225.348 155.628 227.204 154.604 227.65 152.829 L 278.669 25.315 L 278.669 206.199 C 278.669 210.253 275.382 213.54 271.328 213.54 L 82.987 213.54 C 78.933 213.54 75.646 210.253 75.646 206.199 L 75.647 193.852 L 75.649 193.851 L 161.173 134.807 L 223.608 155.064 Z " fill="rgb(59,44,127)"/><path d=" M 75.646 17.491 L 75.646 50.893 L 244.754 10.517 L 82.612 10.524 C 78.764 10.524 75.646 13.643 75.646 17.491 Z " fill="rgb(21,45,47)"/><path d=" M 397.405 178.902 L 369.112 178.902 L 369.112 65.306 L 391.831 65.306 C 391.831 65.306 427.625 62.521 438.341 62.521 C 457.917 62.521 467.704 73.81 467.704 96.384 L 467.704 178.902 L 439.412 178.902 L 439.412 102.6 C 439.412 92.599 434.84 87.598 425.696 87.598 C 420.979 87.598 397.405 88.412 397.405 88.412 L 397.405 178.902 Z " fill="rgb(32,29,67)"/><path d=" M 494.079 46.85 C 508.4 44.549 522.586 42.151 522.586 42.151 L 522.586 65.95 L 550.497 65.95 C 555.086 65.95 558.808 69.671 558.808 74.259 L 558.808 89.525 L 522.586 89.525 L 522.586 137.75 C 522.586 149.895 528.088 155.968 539.089 155.968 C 544.805 155.968 551.093 155.539 557.951 154.683 L 560.522 178.257 C 549.52 179.975 539.447 180.831 530.302 180.831 C 517.013 180.831 507.655 177.581 502.226 171.081 C 496.794 164.577 494.079 153.469 494.079 137.75 L 494.079 46.85 Z " fill="rgb(32,29,67)"/><path d=" M 607.036 91.132 C 603.894 94.92 602.324 102.385 602.324 113.531 L 624.614 113.531 C 632.615 113.531 638.187 112.71 641.329 111.067 C 644.474 109.423 646.045 106.457 646.045 102.172 C 646.045 97.027 644.438 92.955 641.223 89.956 C 638.008 86.953 633.257 85.452 626.971 85.452 C 616.826 85.452 610.18 87.346 607.036 91.132 L 607.036 91.132 Z  M 666.194 177.401 C 650.189 179.975 636.686 181.259 625.685 181.259 C 605.822 181.259 592.104 177.151 584.535 168.935 C 576.96 160.719 573.172 144.825 573.172 121.246 C 573.172 98.815 577.031 83.452 584.747 75.166 C 592.461 66.877 606.467 62.735 626.755 62.735 C 641.758 62.735 653.085 66.127 660.729 72.915 C 668.371 79.702 672.195 89.383 672.195 101.957 C 672.195 110.675 669.442 118.068 663.944 124.14 C 658.442 130.212 649.975 133.25 638.544 133.25 L 602.536 133.25 C 602.536 142.538 604.608 148.861 608.752 152.217 C 612.895 155.576 620.255 157.254 630.827 157.254 C 638.115 157.254 649.047 156.255 663.621 154.255 L 666.194 177.401 Z " fill="rgb(32,29,67)"/><path d=" M 764.584 116.102 C 764.584 105.957 763.405 98.635 761.046 94.134 C 758.688 89.634 754.295 87.383 747.864 87.383 C 743.293 87.383 720.645 88.003 720.645 88.003 L 720.645 154.683 C 733.074 155.397 739.792 155.756 740.794 155.756 C 750.364 155.756 756.723 153.61 759.866 149.325 C 763.011 145.038 764.584 137.534 764.584 126.821 L 764.584 116.102 Z  M 692.354 65.306 L 715.072 65.306 C 715.072 65.306 747.507 62.306 756.224 62.306 C 770.084 62.306 779.798 66.912 785.373 76.13 C 790.945 85.346 793.732 100.313 793.732 121.034 C 793.732 132.323 793.053 141.394 791.696 148.253 C 790.338 155.111 787.696 161.113 783.765 166.258 C 779.834 171.399 774.335 175.007 767.261 177.079 C 760.189 179.153 751.008 180.188 739.719 180.188 C 737.004 180.188 730.645 179.829 720.645 179.117 L 720.645 214.306 L 692.354 214.306 L 692.354 65.306 Z " fill="rgb(32,29,67)"/><path d=" M 889.977 116.102 C 889.977 105.957 888.799 98.635 886.441 94.134 C 884.084 89.634 879.689 87.383 873.259 87.383 C 868.687 87.383 846.04 88.003 846.04 88.003 L 846.04 154.683 C 858.469 155.397 865.186 155.756 866.186 155.756 C 875.76 155.756 882.118 153.61 885.262 149.325 C 888.407 145.038 889.977 137.534 889.977 126.821 L 889.977 116.102 Z  M 817.748 65.306 L 840.466 65.306 C 840.466 65.306 872.9 62.306 881.618 62.306 C 895.477 62.306 905.194 66.912 910.767 76.13 C 916.34 85.346 919.126 100.313 919.126 121.034 C 919.126 132.323 918.447 141.394 917.09 148.253 C 915.732 155.111 913.089 161.113 909.158 166.258 C 905.229 171.399 899.73 175.007 892.655 177.079 C 885.585 179.153 876.403 180.188 865.115 180.188 C 862.398 180.188 856.04 179.829 846.04 179.117 L 846.04 214.306 L 817.748 214.306 L 817.748 65.306 Z " fill="rgb(32,29,67)"/><path d=" M 312.097 64.588 L 341.03 64.588 L 341.03 178.396 L 312.097 178.396 L 312.097 64.588 Z  M 326.455 17.435 C 337.743 17.435 343.387 22.936 343.387 33.938 C 343.387 44.797 337.743 50.226 326.455 50.226 C 315.309 50.226 309.739 44.797 309.739 33.938 C 309.739 22.936 315.309 17.435 326.455 17.435 Z " fill="rgb(32,29,67)"/><path d=" M 2.367 68.393 C -0.679 69.183 -0.825 73.456 2.162 74.452 L 75.646 99.064 L 75.646 50.896 L 2.367 68.393 Z " fill="rgb(21,45,47)"/><path d=" M 288.797 0 L 129.055 124.379 L 75.647 193.852 L 75.646 99.064 L 288.797 0 Z " fill="rgb(246,135,28)"/></g></svg>