<?xml version="1.0" encoding="UTF-8"?><svg xmlns="http://www.w3.org/2000/svg" viewBox="0 0 138.51 61.59"><defs><style>.d{fill:#0d4883;}.e{fill:#f39434;}</style></defs><g id="a"/><g id="b"><g id="c"><g><g><path class="d" d="M12.49,17.63c7.04,0,10.03,2.38,9.29,8.15l-.32,2.52c-.72,5.64-4.47,8.26-11.4,8.26h-2.01l-1.08,8.37H1.64l3.51-27.3h7.34Zm-1.83,14.22c3.79,0,5.19-1.2,5.52-3.79l.26-2.02c.33-2.59-.4-3.93-4.45-3.93h-2.12l-1.25,9.75h2.04Z"/><path class="d" d="M23.31,37.13l.65-5.03c.71-5.5,3.85-8.15,9.72-8.15s8.35,2.52,7.62,8.15l-.65,5.03c-.72,5.64-3.85,8.15-9.72,8.15s-8.35-2.52-7.62-8.15Zm12.15-.25l.58-4.54c.33-2.59-.2-4.08-2.92-4.08s-3.64,1.49-3.97,4.08l-.58,4.54c-.33,2.59,.2,4.08,2.92,4.08s3.64-1.49,3.97-4.08Z"/><path class="d" d="M47.7,17.6h5.19l-2.52,19.6c-.3,2.3,.06,3.05,2.22,3.05l-.6,4.68c-6.02,0-7.58-1.67-6.81-7.66l2.53-19.68Z"/><path class="d" d="M56.02,37.13l.65-5.03c.71-5.5,3.85-8.15,9.72-8.15s8.35,2.52,7.62,8.15l-.65,5.03c-.72,5.64-3.85,8.15-9.72,8.15s-8.35-2.52-7.62-8.15Zm12.15-.25l.58-4.54c.33-2.59-.2-4.08-2.92-4.08s-3.64,1.49-3.97,4.08l-.58,4.54c-.33,2.59,.2,4.08,2.92,4.08s3.64-1.49,3.97-4.08Z"/></g><g><path class="e" d="M100.96,44.97h-5.19l2.63-20.49h5.19l-2.63,20.49Zm3.61-25.17c-.46,3.54-6.33,3.58-5.87,0,.46-3.62,6.33-3.58,5.87,0Z"/><path class="e" d="M107.48,24.02h4.51v2.13c1.59-1.56,3.65-2.27,5.54-2.27,3.68-.03,7.04,1.77,6.22,8.15l-1.66,12.9h-5.15l1.65-12.87c.35-2.69-.72-3.79-2.88-3.79-2.01,0-3.72,.92-4.06,3.62l-1.68,13.05h-5.19l2.69-20.92Z"/></g><g><path class="e" d="M3.71,54.87h-.83l-.13-.74H1.6l-.33,.74H.44l1.78-4.19h.8l.68,4.19Zm-1.07-1.48l-.17-1.55-.57,1.55h.75Z"/><path class="e" d="M6.04,52.66c.03-.25-.16-.35-.41-.35-.31,0-.51,.11-.54,.34-.05,.35,.36,.3,.81,.35,.46,.05,.88,.3,.81,.88-.09,.7-.72,1.01-1.46,1.01-.81,0-1.25-.39-1.17-1.01h.81c-.01,.22,.1,.35,.49,.35,.32,0,.51-.17,.53-.32,.03-.27-.34-.28-.75-.33-.49-.06-.95-.26-.87-.9,.09-.72,.69-1.05,1.44-1.05,.84,0,1.19,.45,1.12,1.03h-.78Z"/><path class="e" d="M9.08,52.66c.03-.25-.16-.35-.41-.35-.31,0-.51,.11-.54,.34-.05,.35,.36,.3,.81,.35,.46,.05,.88,.3,.81,.88-.09,.7-.72,1.01-1.46,1.01-.81,0-1.25-.39-1.17-1.01h.81c-.01,.22,.1,.35,.49,.35,.32,0,.51-.17,.53-.32,.03-.27-.34-.28-.75-.33-.49-.06-.95-.26-.87-.9,.09-.72,.69-1.05,1.44-1.05,.84,0,1.19,.45,1.12,1.03h-.78Z"/><path class="e" d="M10.29,53.67l.1-.77c.11-.85,.59-1.26,1.5-1.26s1.29,.39,1.17,1.26l-.1,.77c-.11,.87-.59,1.25-1.5,1.25s-1.28-.39-1.17-1.25Zm1.87-.04l.09-.7c.05-.4-.03-.63-.45-.63s-.56,.23-.61,.63l-.09,.7c-.05,.4,.03,.62,.45,.62s.56-.23,.61-.62Z"/><path class="e" d="M15.56,52.85c.05-.37-.07-.55-.47-.55-.44,0-.6,.23-.65,.63l-.09,.7c-.05,.4,.03,.62,.45,.62s.59-.17,.65-.55h.76c-.11,.87-.59,1.22-1.49,1.22s-1.28-.39-1.17-1.27l.09-.72c.11-.87,.62-1.29,1.52-1.29s1.27,.34,1.16,1.21h-.76Z"/><path class="e" d="M17.53,54.88h-.8l.41-3.15h.8l-.41,3.15Zm.56-3.87c-.07,.55-.97,.55-.9,0,.07-.56,.98-.55,.9,0Z"/><path class="e" d="M18.54,52.76c.05-.8,.55-1.12,1.37-1.12,.9,0,1.23,.42,1.13,1.26l-.25,1.98h-.65l-.03-.37c-.22,.25-.57,.42-.96,.42-.57,0-.95-.31-.87-.91,.1-.76,.81-1.06,1.99-.98,.06-.48,0-.72-.43-.72-.35,0-.49,.11-.53,.46h-.76Zm.5,1.19c-.03,.21,.16,.28,.43,.28,.47,0,.64-.32,.71-.64-.81-.08-1.12,.1-1.15,.36Z"/><path class="e" d="M22.47,54.91c-.71-.07-1-.46-.9-1.25l.09-.72c.11-.87,.62-1.29,1.52-1.29s1.27,.34,1.16,1.21h-.76c.05-.37-.07-.55-.47-.55-.44,0-.6,.23-.65,.63l-.09,.7c-.05,.4,.03,.62,.45,.62s.59-.17,.65-.55h.76c-.1,.76-.48,1.12-1.17,1.2l-.09,.19c.48,.03,.55,.35,.43,.65-.24,.58-1.21,.65-1.59,.22l.3-.34c.13,.12,.54,.24,.65,0,.06-.15-.18-.27-.5-.28l.2-.44Z"/><path class="e" d="M24.93,52.76c.05-.8,.55-1.12,1.37-1.12,.9,0,1.23,.42,1.13,1.26l-.25,1.98h-.65l-.03-.37c-.22,.25-.57,.42-.96,.42-.57,0-.95-.31-.87-.91,.1-.76,.81-1.06,1.99-.98,.06-.48,0-.72-.43-.72-.35,0-.49,.11-.53,.46h-.76Zm.5,1.19c-.03,.21,.16,.28,.44,.28,.47,0,.64-.32,.71-.64-.81-.08-1.12,.1-1.15,.36Zm.02-2.87c.16-.35,.55-.61,.91-.44l.26,.13c.08,.03,.19,.03,.28-.14l.45,.19c-.14,.35-.47,.68-.89,.51l-.29-.14c-.06-.04-.2-.04-.3,.13l-.43-.23Z"/><path class="e" d="M27.96,53.67l.1-.77c.11-.85,.59-1.26,1.5-1.26s1.29,.39,1.17,1.26l-.1,.77c-.11,.87-.59,1.25-1.5,1.25s-1.28-.39-1.17-1.25Zm1.87-.04l.09-.7c.05-.4-.03-.63-.45-.63s-.56,.23-.61,.63l-.09,.7c-.05,.4,.03,.62,.45,.62s.56-.23,.61-.62Z"/><path class="e" d="M34.54,54.87v-.36c-.18,.23-.48,.37-.87,.37-.68,0-1.09-.35-.97-1.24l.11-.83c.1-.76,.54-1.2,1.31-1.2,.28,0,.56,.07,.67,.28l.16-1.23h.8l-.54,4.2h-.66Zm-.94-2.02l-.1,.76c-.06,.46,.13,.61,.44,.61,.4,0,.58-.27,.62-.64l.09-.74c.05-.39-.13-.54-.45-.54-.35,0-.56,.15-.61,.54Z"/><path class="e" d="M36.24,52.76c.05-.8,.55-1.12,1.37-1.12,.9,0,1.23,.42,1.13,1.26l-.25,1.98h-.65l-.03-.37c-.22,.25-.57,.42-.96,.42-.56,0-.95-.31-.87-.91,.1-.76,.81-1.06,1.99-.98,.06-.48,0-.72-.43-.72-.35,0-.49,.11-.53,.46h-.76Zm.5,1.19c-.03,.21,.16,.28,.44,.28,.47,0,.64-.32,.71-.64-.81-.08-1.12,.1-1.15,.36Z"/><path class="e" d="M41.13,52.66c.03-.25-.16-.35-.41-.35-.31,0-.51,.11-.54,.34-.05,.35,.36,.3,.81,.35,.46,.05,.88,.3,.81,.88-.09,.7-.72,1.01-1.46,1.01-.81,0-1.25-.39-1.17-1.01h.81c-.01,.22,.1,.35,.49,.35,.32,0,.51-.17,.53-.32,.03-.27-.34-.28-.75-.33-.49-.06-.95-.26-.87-.9,.09-.72,.69-1.05,1.44-1.05,.84,0,1.19,.45,1.12,1.03h-.78Z"/><path class="e" d="M46.84,50.67l-.08,.65h-1.78l-.14,1.08h1.52l-.09,.68h-1.52l-.14,1.11h1.86l-.09,.69h-2.67l.54-4.2h2.58Z"/><path class="e" d="M47.41,51.65h.7v.33c.23-.23,.56-.36,.86-.35,.34,0,.67,.1,.79,.41,.21-.25,.59-.42,1.03-.42,.71,0,1.09,.39,.97,1.26l-.25,1.98h-.8l.25-1.98c.05-.42-.11-.58-.44-.58-.3,0-.55,.12-.62,.58l-.25,1.98h-.8l.25-1.98c.05-.42-.1-.58-.44-.58-.31,0-.57,.14-.63,.56l-.26,2.01h-.8l.41-3.22Z"/><path class="e" d="M53.41,51.65v.35c.18-.23,.48-.37,.87-.37,.68,0,1.09,.35,.97,1.24l-.11,.83c-.1,.76-.54,1.2-1.31,1.2-.28,0-.56-.07-.67-.28l-.16,1.23h-.8l.54-4.19h.66Zm.94,2.02l.1-.76c.06-.46-.12-.62-.44-.62-.4,0-.58,.27-.62,.64l-.09,.74c-.05,.39,.13,.53,.45,.53,.35,0,.56-.15,.61-.54Z"/><path class="e" d="M57.74,52.43c-.51-.06-.94,.13-1,.61l-.24,1.84h-.8l.41-3.22h.74v.34c.16-.22,.58-.42,.99-.36l-.1,.79Z"/><path class="e" d="M60.6,53.88c-.09,.68-.56,1-1.46,1s-1.29-.39-1.17-1.25l.09-.73c.1-.81,.59-1.26,1.5-1.26s1.29,.39,1.17,1.26l-.08,.64h-1.87v.08c-.08,.52,.13,.61,.45,.61,.38,0,.55-.12,.58-.35h.79Zm-1.74-.97h1.09c.05-.4,0-.62-.46-.62s-.59,.24-.64,.62Z"/><path class="e" d="M63.11,52.66c.03-.25-.16-.35-.41-.35-.31,0-.51,.11-.54,.34-.05,.35,.36,.3,.81,.35,.46,.05,.88,.3,.81,.88-.09,.7-.72,1.01-1.46,1.01-.81,0-1.25-.39-1.17-1.01h.81c-.01,.22,.1,.35,.49,.35,.32,0,.51-.17,.53-.32,.03-.27-.34-.28-.75-.33-.49-.06-.95-.26-.87-.9,.09-.72,.69-1.05,1.44-1.05,.84,0,1.19,.45,1.12,1.03h-.78Z"/><path class="e" d="M64.46,52.76c.05-.8,.55-1.12,1.37-1.12,.9,0,1.23,.42,1.13,1.26l-.25,1.98h-.65l-.03-.37c-.22,.25-.57,.42-.96,.42-.57,0-.95-.31-.87-.91,.1-.76,.81-1.06,1.99-.98,.06-.48,0-.72-.43-.72-.35,0-.49,.11-.53,.46h-.76Zm.5,1.19c-.03,.21,.16,.28,.44,.28,.47,0,.64-.32,.71-.64-.81-.08-1.12,.1-1.15,.36Z"/><path class="e" d="M69.35,52.66c.03-.25-.16-.35-.41-.35-.31,0-.51,.11-.54,.34-.05,.35,.36,.3,.81,.35,.46,.05,.88,.3,.81,.88-.09,.7-.72,1.01-1.46,1.01-.81,0-1.25-.39-1.17-1.01h.81c-.01,.22,.1,.35,.49,.35,.32,0,.51-.17,.53-.32,.03-.27-.34-.28-.75-.33-.49-.06-.95-.26-.87-.9,.09-.72,.69-1.05,1.44-1.05,.84,0,1.19,.45,1.12,1.03h-.78Z"/><path class="e" d="M1.86,61.42v-.36c-.18,.23-.48,.37-.87,.37-.68,0-1.09-.35-.97-1.25l.11-.83c.1-.76,.54-1.2,1.31-1.2,.28,0,.56,.07,.67,.28l.16-1.23h.8l-.54,4.2h-.66Zm-.94-2.02l-.1,.76c-.06,.46,.13,.61,.44,.61,.4,0,.58-.27,.62-.64l.09-.74c.05-.39-.13-.53-.45-.53-.35,0-.56,.15-.61,.54Z"/><path class="e" d="M6.07,60.43c-.09,.68-.56,1-1.46,1s-1.28-.39-1.17-1.26l.09-.73c.1-.81,.59-1.25,1.5-1.25s1.29,.39,1.17,1.25l-.08,.64h-1.87v.08c-.08,.52,.13,.61,.45,.61,.38,0,.55-.12,.58-.35h.79Zm-1.74-.96h1.09c.05-.4,0-.62-.46-.62s-.59,.24-.64,.62Z"/><path class="e" d="M9.92,57.86c-.44,0-.64,.13-.69,.53-.07,.53,.39,.48,1.06,.58,.51,.08,.98,.27,.87,1.11-.12,.97-.63,1.38-1.71,1.38s-1.41-.51-1.32-1.19h.81c-.02,.32,.11,.5,.62,.5,.48,0,.73-.19,.79-.67,.06-.49-.57-.49-1.04-.56-.5-.06-1.01-.29-.9-1.16,.1-.78,.67-1.19,1.59-1.19,.81,0,1.31,.28,1.28,1.12h-.81c.02-.36-.16-.46-.55-.46Z"/><path class="e" d="M11.69,60.22l.1-.77c.11-.84,.59-1.25,1.5-1.25s1.29,.39,1.17,1.25l-.1,.77c-.11,.87-.59,1.25-1.5,1.25s-1.28-.39-1.17-1.25Zm1.87-.04l.09-.7c.05-.4-.03-.63-.45-.63s-.56,.23-.61,.63l-.09,.7c-.05,.4,.03,.63,.45,.63s.56-.23,.61-.63Z"/><path class="e" d="M16.88,57.83c-.53-.08-.85,.13-.9,.5l-.02,.17h.74l-.09,.68h-.74l-.29,2.25h-.8l.4-3.12c.09-.74,.73-1.27,1.78-1.15l-.09,.66Z"/><path class="e" d="M17.42,57.65l.81-.08-.08,.63h.58l-.09,.68h-.58l-.17,1.36c-.04,.36-.02,.59,.53,.54l-.08,.65c-1.03,.1-1.37-.22-1.24-1.18l.33-2.6Z"/><path class="e" d="M21.49,58.21l.13,1.03c.05,.44,.08,.86,.09,1.29,.11-.41,.26-.92,.43-1.35l.42-.96h.82l-1.41,3.22h-.76l-.11-.71-.09-1.13-.39,1.14-.29,.7h-.76l-.59-3.22h.83l.18,.96c.06,.44,.07,.94,.08,1.35,.08-.3,.14-.62,.39-1.3,.1-.27,.27-.61,.44-1.02h.59Z"/><path class="e" d="M23.52,59.31c.05-.8,.55-1.12,1.37-1.12,.9,0,1.23,.42,1.13,1.25l-.25,1.98h-.65l-.03-.37c-.22,.25-.57,.42-.96,.42-.57,0-.95-.31-.87-.91,.1-.76,.81-1.06,1.99-.98,.06-.48,0-.72-.43-.72-.35,0-.49,.11-.53,.46h-.76Zm.5,1.18c-.03,.21,.16,.28,.44,.28,.47,0,.64-.32,.71-.64-.81-.08-1.12,.1-1.15,.35Z"/><path class="e" d="M28.49,58.98c-.51-.07-.94,.13-1,.61l-.24,1.84h-.8l.41-3.22h.74v.34c.16-.22,.58-.42,.99-.36l-.1,.79Z"/><path class="e" d="M31.36,60.43c-.09,.68-.56,1-1.46,1s-1.28-.39-1.17-1.26l.09-.73c.1-.81,.59-1.25,1.5-1.25s1.29,.39,1.17,1.25l-.08,.64h-1.87v.08c-.08,.52,.13,.61,.45,.61,.38,0,.55-.12,.58-.35h.79Zm-1.74-.96h1.09c.05-.4,0-.62-.46-.62s-.59,.24-.64,.62Z"/><path class="e" d="M35.32,61.42v-.36c-.18,.23-.48,.37-.87,.37-.68,0-1.09-.35-.97-1.25l.11-.83c.1-.76,.54-1.2,1.31-1.2,.28,0,.56,.07,.67,.28l.16-1.23h.8l-.54,4.2h-.66Zm-.94-2.02l-.1,.76c-.06,.46,.13,.61,.44,.61,.4,0,.58-.27,.62-.64l.09-.74c.05-.39-.13-.53-.45-.53-.35,0-.56,.15-.61,.54Z"/><path class="e" d="M36.87,60.22l.1-.77c.11-.84,.59-1.25,1.5-1.25s1.29,.39,1.17,1.25l-.1,.77c-.11,.87-.59,1.25-1.5,1.25s-1.28-.39-1.17-1.25Zm1.87-.04l.09-.7c.05-.4-.03-.63-.45-.63s-.56,.23-.61,.63l-.09,.7c-.05,.4,.03,.63,.45,.63s.56-.23,.61-.63Z"/><path class="e" d="M41.64,60.21l.23-1.78c.12-.89,.57-1.25,1.66-1.25s1.49,.36,1.37,1.25l-.23,1.78c-.11,.87-.63,1.26-1.69,1.26s-1.45-.39-1.34-1.26Zm2.23-.04l.22-1.7c.05-.38-.02-.63-.65-.63-.58,0-.72,.25-.77,.63l-.22,1.7c-.05,.4,.03,.63,.61,.63s.76-.23,.81-.63Z"/><path class="e" d="M47.98,60.43c-.09,.68-.56,1-1.46,1s-1.28-.39-1.17-1.26l.09-.73c.1-.81,.59-1.25,1.5-1.25s1.29,.39,1.17,1.25l-.08,.64h-1.87v.08c-.08,.52,.13,.61,.45,.61,.38,0,.55-.12,.58-.35h.79Zm-1.74-.96h1.09c.05-.4,0-.62-.46-.62s-.59,.24-.64,.62Z"/><path class="e" d="M50.49,59.21c.03-.25-.16-.35-.42-.35-.31,0-.51,.11-.54,.34-.05,.36,.36,.31,.81,.36,.45,.05,.88,.3,.81,.88-.09,.7-.72,1.01-1.46,1.01-.81,0-1.25-.39-1.17-1.01h.81c-.01,.22,.1,.35,.49,.35,.32,0,.51-.17,.53-.33,.03-.27-.34-.28-.75-.33-.49-.06-.95-.26-.87-.9,.09-.72,.69-1.05,1.44-1.05,.84,0,1.19,.45,1.12,1.03h-.78Z"/><path class="e" d="M52.06,57.65l.81-.08-.08,.63h.58l-.09,.68h-.58l-.17,1.36c-.04,.36-.02,.59,.53,.54l-.08,.65c-1.03,.1-1.37-.22-1.24-1.18l.33-2.6Z"/><path class="e" d="M56.26,60.43c-.09,.68-.56,1-1.46,1s-1.28-.39-1.17-1.26l.09-.73c.1-.81,.59-1.25,1.5-1.25s1.29,.39,1.17,1.25l-.08,.64h-1.87v.08c-.08,.52,.13,.61,.45,.61,.38,0,.55-.12,.58-.35h.79Zm-1.74-.96h1.09c.05-.4,0-.62-.46-.62s-.59,.24-.64,.62Z"/><path class="e" d="M59.98,57.22c1.08,0,1.54,.36,1.43,1.25l-.05,.39c-.11,.87-.69,1.27-1.75,1.27h-.31l-.17,1.29h-.82l.54-4.2h1.13Zm-.28,2.19c.58,0,.8-.19,.85-.58l.04-.31c.05-.4-.06-.61-.69-.61h-.33l-.19,1.5h.32Z"/><path class="e" d="M61.79,59.31c.05-.8,.55-1.12,1.37-1.12,.9,0,1.23,.42,1.13,1.25l-.25,1.98h-.65l-.03-.37c-.22,.25-.57,.42-.96,.42-.57,0-.95-.31-.87-.91,.1-.76,.81-1.06,1.99-.98,.06-.48,0-.72-.43-.72-.35,0-.49,.11-.53,.46h-.76Zm.5,1.18c-.03,.21,.16,.28,.44,.28,.47,0,.64-.32,.71-.64-.81-.08-1.12,.1-1.15,.35Z"/><path class="e" d="M67.44,61.42h-.71v-.33c-.25,.24-.56,.35-.86,.35-.56,0-1.08-.27-.96-1.26l.26-1.99h.79l-.25,1.98c-.05,.42,.11,.58,.45,.58,.31,0,.57-.14,.62-.56l.26-2.01h.82l-.41,3.22Z"/><path class="e" d="M68.79,57.22h.8l-.39,3.01c-.04,.36,.01,.47,.34,.47l-.09,.72c-.93,0-1.17-.26-1.05-1.18l.39-3.03Z"/><path class="e" d="M70.84,61.43h-.8l.41-3.15h.8l-.41,3.15Zm.56-3.87c-.07,.54-.97,.55-.9,0,.07-.56,.98-.55,.9,0Z"/><path class="e" d="M73.58,59.21c.03-.25-.16-.35-.42-.35-.31,0-.51,.11-.54,.34-.05,.36,.36,.31,.81,.36,.45,.05,.88,.3,.81,.88-.09,.7-.72,1.01-1.46,1.01-.81,0-1.25-.39-1.17-1.01h.81c-.01,.22,.1,.35,.49,.35,.32,0,.51-.17,.53-.33,.03-.27-.34-.28-.75-.33-.49-.06-.95-.26-.87-.9,.09-.72,.69-1.05,1.44-1.05,.84,0,1.19,.45,1.12,1.03h-.78Z"/><path class="e" d="M75.16,57.65l.81-.08-.08,.63h.58l-.09,.68h-.58l-.17,1.36c-.04,.36-.02,.59,.53,.54l-.08,.65c-1.03,.1-1.37-.22-1.24-1.18l.33-2.6Z"/><path class="e" d="M76.83,59.31c.05-.8,.55-1.12,1.37-1.12,.9,0,1.23,.42,1.13,1.25l-.25,1.98h-.65l-.03-.37c-.22,.25-.57,.42-.96,.42-.56,0-.95-.31-.87-.91,.1-.76,.81-1.06,1.99-.98,.06-.48,0-.72-.43-.72-.35,0-.49,.11-.53,.46h-.76Zm.5,1.18c-.03,.21,.16,.28,.43,.28,.47,0,.64-.32,.71-.64-.81-.08-1.12,.1-1.15,.35Z"/></g><path class="e" d="M132.11,39.42l2.66-17.04c1.85-.54,3.39-2.19,3.69-4.14,.37-2.39-1.25-4.33-3.63-4.33-1.07,0-2.1,.39-2.96,1.04l-13.6-8.69c.18-.42,.31-.85,.38-1.3,.43-2.74-1.44-4.96-4.16-4.96s-5.28,2.23-5.7,4.96c-.07,.45-.07,.89-.03,1.3l-16.02,8.54c-.66-.8-1.66-1.29-2.86-1.29-2.38,0-4.6,1.94-4.98,4.33-.3,1.95,.72,3.6,2.4,4.14l-2.72,17.45h0c-2.2,.56-4.06,2.49-4.42,4.79-.43,2.74,1.44,4.96,4.16,4.96,1.37,0,2.7-.57,3.74-1.48h0l13.47,8.6c-.12,.31-.21,.64-.26,.97-.37,2.39,1.25,4.33,3.63,4.33s4.6-1.94,4.98-4.33c.05-.34,.06-.66,.04-.97l16.15-8.6h0c.75,.91,1.91,1.48,3.28,1.48,2.72,0,5.28-2.23,5.7-4.96,.36-2.3-.9-4.23-2.93-4.79Zm-.55-.12s-.04,0-.07-.01c.02,0,.04,0,.07,.01ZM114.29,1.26c2.03,0,3.41,1.66,3.1,3.7-.32,2.04-2.22,3.7-4.25,3.7s-3.41-1.66-3.1-3.7c.32-2.04,2.22-3.7,4.25-3.7Zm3.31,6.17s-.02,.03-.04,.05c.01-.02,.02-.03,.04-.05Zm-.4,.49s-.06,.06-.09,.09c.03-.03,.06-.06,.09-.09Zm-8.12-.44s-.01-.03-.02-.05c0,.02,.01,.03,.02,.05Zm.28,.53s-.04-.06-.06-.1c.02,.03,.04,.06,.06,.1Zm.31,.44c.75,.91,1.9,1.47,3.27,1.47s2.69-.56,3.73-1.47l13.52,8.64c-.16,.37-.28,.75-.34,1.15-.3,1.95,.72,3.6,2.4,4.14l-2.66,17.04h0c-2.2,.56-4.06,2.49-4.42,4.79-.07,.44-.07,.87-.03,1.28l-16.16,8.61c-.66-.72-1.61-1.17-2.75-1.17s-2.23,.44-3.11,1.17l-13.48-8.61c.17-.41,.3-.84,.37-1.28,.36-2.3-.9-4.23-2.93-4.79l2.72-17.45c1.85-.54,3.39-2.19,3.69-4.14,.04-.27,.06-.53,.05-.79l16.12-8.59h0Zm20.58,30.84s-.05,0-.07,.01c.02,0,.05,0,.07-.01Zm-43.72,.01s-.04,0-.07-.01c.02,0,.04,0,.07,.01Zm-1.3-.01s-.05,0-.07,.01c.02,0,.05,0,.07-.01Zm-.73,8.61c-2.03,0-3.41-1.66-3.1-3.7,.32-2.04,2.22-3.7,4.25-3.7s3.41,1.66,3.1,3.7c-.32,2.04-2.22,3.7-4.25,3.7Zm4.07-.74s-.05,.05-.07,.08c.02-.03,.05-.05,.07-.08Zm.4-.49l-.02,.02,.02-.02Zm36.71,.49s.03,.05,.05,.08c-.02-.03-.03-.05-.05-.08Zm-.24-.49v0Zm4.08,1.23c-2.03,0-3.41-1.66-3.1-3.7,.32-2.04,2.22-3.7,4.25-3.7s3.41,1.66,3.1,3.7c-.32,2.04-2.22,3.7-4.25,3.7Z"/></g></g></g></svg>