<svg xmlns:xlink="http://www.w3.org/1999/xlink" xmlns="http://www.w3.org/2000/svg" width="447" height="90" viewBox="0 0 447 90" fill="none">
<path d="M0 53.4806C0 50.4537 2.42053 48 5.4064 48H27.7844C35.0832 48 41 53.998 41 61.397V84.5194C41 87.5463 38.5795 90 35.5936 90H5.4064C2.42053 90 0 87.5463 0 84.5194V53.4806Z" fill="#6B7AE5"/>
<path d="M47 61.397C47 53.998 53.0612 48 60.538 48H83.4617C86.5204 48 89 50.4537 89 53.4806V84.5194C89 87.5463 86.5204 90 83.4617 90H52.5383C49.4796 90 47 87.5463 47 84.5194V61.397Z" fill="#6B7AE5"/>
<path d="M47 5.61106C47 2.51216 49.4796 0 52.5383 0H83.4617C86.5204 0 89 2.51216 89 5.61106V37.3889C89 40.4878 86.5204 43 83.4617 43H60.538C53.0612 43 47 36.8592 47 29.2841V5.61106Z" fill="#6B7AE5"/>
<path d="M0 5.61106C0 2.51216 2.42053 0 5.4064 0H35.5936C38.5795 0 41 2.51216 41 5.61106V29.2841C41 36.8592 35.0832 43 27.7844 43H5.4064C2.42053 43 0 40.4878 0 37.3889V5.61106Z" fill="#6B7AE5"/>
<path d="M171.336 72.0103L160.022 51.8041C165.263 49.9897 171.086 44.8763 171.086 35.3093C171.086 25.0825 164.098 17 151.786 17H124V72.0103H138.309V53.5361H145.63L154.947 72.0103H171.336ZM149.623 41.1649H138.309V29.3711H149.623C153.45 29.3711 156.528 31.433 156.528 35.2268C156.528 39.1031 153.45 41.1649 149.623 41.1649Z" fill="#1D1C3E"/>
<path d="M218.599 72.0103V32.1753H205.788V57.9072C204.29 59.8041 201.794 61.7835 198.134 61.7835C193.975 61.7835 191.479 60.134 191.479 55.268V32.1753H178.667V60.5464C178.667 67.8041 182.827 73 191.895 73C198.716 73 203.292 70.0309 205.788 67.2268V72.0103H218.599Z" fill="#1D1C3E"/>
<path d="M240.711 58.2371V46.0309C242.291 43.8866 245.619 42.4021 248.364 42.4021C253.439 42.4021 257.266 46.1134 257.266 52.0515C257.266 58.0722 253.439 61.7835 248.364 61.7835C245.619 61.7835 242.291 60.3814 240.711 58.2371ZM240.711 72.0103V67.3918C244.038 71.1856 248.115 73 252.607 73C262.507 73 270.327 65.5773 270.327 52.0515C270.327 39.0206 262.673 31.1856 252.607 31.1856C248.198 31.1856 243.872 32.9175 240.711 36.8763V17H227.899V72.0103H240.711Z" fill="#1D1C3E"/>
<path d="M296.351 73C302.923 73 306.666 70.5258 310.077 66.3196L308.247 64.7526C305.002 69.1237 301.176 70.7732 296.517 70.7732C286.201 70.7732 280.128 62.4433 280.128 52.0515C280.128 41.6598 286.201 33.4124 296.517 33.4124C301.176 33.4124 305.002 34.9794 308.247 39.3505L310.077 37.866C306.666 33.6598 302.923 31.1856 296.351 31.1856C284.704 31.1856 277.383 40.5876 277.383 52.0515C277.383 63.5155 284.704 73 296.351 73Z" fill="#1D1C3E"/>
<path d="M350.189 72.0103V32.1753H347.693V63.5155C344.864 67.4742 338.958 70.7732 333.467 70.7732C327.228 70.7732 323.068 68.4639 323.068 60.134V32.1753H320.573V60.134C320.573 69.5361 325.148 73 333.135 73C338.708 73 344.282 69.701 347.693 65.9072V72.0103H350.189Z" fill="#1D1C3E"/>
<path d="M367.02 62.8557V41.4948C369.516 37.2887 375.256 33.4124 381.495 33.4124C391.312 33.4124 396.719 41.6598 396.719 52.134C396.719 62.6082 391.312 70.7732 381.495 70.7732C375.256 70.7732 369.516 67.0619 367.02 62.8557ZM367.02 72.0103V65.3299C369.765 69.4536 375.173 73 381.495 73C392.31 73 399.464 64.7526 399.464 52.134C399.464 39.5979 392.31 31.1856 381.495 31.1856C375.505 31.1856 370.264 34.3196 367.02 39.0206V17H364.524V72.0103H367.02Z" fill="#1D1C3E"/>
<path d="M429.197 73C435.936 73 440.594 70.5258 444.671 66.3196L443.173 64.7526C439.43 68.7113 434.854 70.7732 429.197 70.7732C418.965 70.7732 412.559 62.6082 412.309 52.8763H447V52.0515C447 41 440.678 31.1856 428.365 31.1856C417.55 31.1856 409.481 40.5052 409.481 52.0515C409.481 64.1753 417.55 73 429.197 73ZM444.338 50.6495H412.309C412.559 42.8144 417.966 33.4124 428.282 33.4124C439.263 33.4124 444.338 42.9794 444.338 50.6495Z" fill="#1D1C3E"/>
</svg>